# xmcd
#
# Track frame offsets: 
#        150
#        36412
#        91983
#        126218
#        139884
#        160654
#        175519
#        196028
#        213526
#        244354
#        273850
#        289073
#        306023
#        337798
#
# Disc length: 4758 seconds
#
# Revision: 0
# Processed by: cddbd v1.5.2PL0 Copyright (c) Steve Scherf et al.
# Submitted via: ExactAudioCopyFreeDBPlugin 1.0
#
DISCID=c312940e
DTITLE=Various Artist - Mr. Scruff's Big Chill Classics: Big Up Your 
DTITLE=Tent [disc 1]
DYEAR=1900
DGENRE=
TTITLE0=Mike Westbrook - Metropolis IX
TTITLE1=The Ousmane Kouyate Band - N'Nafanta
TTITLE2=Gary Bartz Ntu Troop - Celestial Blues
TTITLE3=Dennis Yost and The Classics IV - All In Your Mind
TTITLE4=Johnny Hammond - Can't We Smile
TTITLE5=Paul Hunter - Peaceful Morning
TTITLE6=Nobukazu Takemura - Serene
TTITLE7=Extended Spirit - Illicity Pt. 1
TTITLE8=Treva Whateva - Music's Made Of memories
TTITLE9=The In Crowd - Back A Yard
TTITLE10=Glen Brown - Wicked Can't Run This Dub
TTITLE11=Daweh Congo - Provherbs
TTITLE12=Fela Ransome Kuti and Nigeria 70 - My Lady Frustration
TTITLE13=Grady Tate - Moondance
EXTD=
EXTT0=
EXTT1=
EXTT2=
EXTT3=
EXTT4=
EXTT5=
EXTT6=
EXTT7=
EXTT8=
EXTT9=
EXTT10=
EXTT11=
EXTT12=
EXTT13=
PLAYORDER=
